<svg width="65" height="65" viewBox="0 0 65 65" fill="none" xmlns="http://www.w3.org/2000/svg">
<path d="M30.0541 2.30827C31.6211 1.40353 33.5518 1.40353 35.1189 2.30827L57.458 15.2058C59.0251 16.1105 59.9904 17.7826 59.9904 19.592V45.3871C59.9904 47.1965 59.0251 48.8686 57.458 49.7733L35.1189 62.6708C33.5518 63.5756 31.6211 63.5756 30.0541 62.6708L7.71491 49.7733C6.14786 48.8686 5.18252 47.1965 5.18252 45.3871V19.592C5.18252 17.7825 6.14787 16.1105 7.71492 15.2058L30.0541 2.30827Z" stroke="url(#paint0_linear_663_91)" stroke-opacity="0.3" stroke-width="1.01296"/>
<path d="M30.824 11.4829C31.9146 10.8532 33.2584 10.8532 34.3491 11.4829L49.8971 20.4596C50.9878 21.0893 51.6597 22.253 51.6597 23.5124V41.4658C51.6597 42.7252 50.9878 43.8889 49.8971 44.5186L34.3491 53.4953C33.2584 54.125 31.9146 54.125 30.824 53.4953L15.2759 44.5186C14.1852 43.8889 13.5134 42.7252 13.5134 41.4658V23.5124C13.5134 22.253 14.1852 21.0893 15.2759 20.4596L30.824 11.4829Z" fill="url(#paint1_linear_663_91)" fill-opacity="0.2"/>
<g clip-path="url(#clip0_663_91)">
<path d="M22.176 20.5913H42.9974L40.6983 41.971L32.5657 44.3871L24.4776 41.9697L22.176 20.5913ZM38.8099 24.9662L26.3647 24.9635L26.5654 27.5623L36.1266 27.565L35.8866 30.2584H29.6157L29.843 32.8092H35.6809L35.3354 36.3027L32.5873 37.1001L29.7973 36.2961L29.6182 34.204H27.1546L27.4289 38.0268L32.5873 39.7136L37.6607 38.1975L38.8099 24.9662Z" fill="#42A5F5"/>
</g>
<defs>
<linearGradient id="paint0_linear_663_91" x1="0.943115" y1="0.846191" x2="64.2298" y2="64.1329" gradientUnits="userSpaceOnUse">
<stop stop-color="white"/>
<stop offset="0.765625" stop-color="white" stop-opacity="0"/>
</linearGradient>
<linearGradient id="paint1_linear_663_91" x1="10.5627" y1="10.4653" x2="54.6103" y2="54.5129" gradientUnits="userSpaceOnUse">
<stop stop-color="white"/>
<stop offset="0.828125" stop-color="white" stop-opacity="0"/>
</linearGradient>
<clipPath id="clip0_663_91">
<rect width="23.7958" height="23.7958" fill="white" transform="translate(20.6887 20.5913)"/>
</clipPath>
</defs>
</svg>
