<svg width="65" height="65" viewBox="0 0 65 65" fill="none" xmlns="http://www.w3.org/2000/svg">
<path d="M29.8419 2.20182C31.409 1.29709 33.3397 1.29709 34.9067 2.20182L57.2459 15.0993C58.8129 16.0041 59.7783 17.6761 59.7783 19.4856V45.2806C59.7783 47.0901 58.8129 48.7621 57.2459 49.6669L34.9067 62.5644C33.3397 63.4691 31.409 63.4691 29.8419 62.5644L7.50276 49.6669C5.9357 48.7621 4.97036 47.0901 4.97036 45.2806V19.4856C4.97036 17.6761 5.93571 16.0041 7.50276 15.0993L29.8419 2.20182Z" stroke="url(#paint0_linear_663_127)" stroke-opacity="0.3" stroke-width="1.01296"/>
<path d="M30.6118 11.3765C31.7025 10.7468 33.0462 10.7468 34.1369 11.3765L49.685 20.3532C50.7756 20.9829 51.4475 22.1466 51.4475 23.406V41.3593C51.4475 42.6187 50.7756 43.7825 49.685 44.4122L34.1369 53.3888C33.0462 54.0185 31.7025 54.0185 30.6118 53.3888L15.0638 44.4122C13.9731 43.7825 13.3012 42.6187 13.3012 41.3593V23.406C13.3012 22.1466 13.9731 20.9829 15.0638 20.3532L30.6118 11.3765Z" fill="url(#paint1_linear_663_127)" fill-opacity="0.2"/>
<g clip-path="url(#clip0_663_127)">
<path d="M36.34 36.3489C38.5303 36.3489 40.306 34.5733 40.306 32.383C40.306 30.1926 38.5303 28.417 36.34 28.417C34.1496 28.417 32.374 30.1926 32.374 32.383C32.374 34.5733 34.1496 36.3489 36.34 36.3489Z" fill="#19BCFE"/>
<path fill-rule="evenodd" clip-rule="evenodd" d="M28.4083 44.2811C29.4602 44.2811 30.4689 43.8632 31.2127 43.1194C31.9565 42.3757 32.3743 41.3669 32.3743 40.3151V36.3491H28.4083C27.3565 36.3491 26.3478 36.767 25.604 37.5107C24.8602 38.2545 24.4424 39.2632 24.4424 40.3151C24.4424 41.3669 24.8602 42.3757 25.604 43.1194C26.3478 43.8632 27.3565 44.2811 28.4083 44.2811V44.2811Z" fill="#09CF83"/>
<path fill-rule="evenodd" clip-rule="evenodd" d="M28.4083 36.3489H32.3743V28.417H28.4083C27.3565 28.417 26.3478 28.8348 25.604 29.5786C24.8602 30.3224 24.4424 31.3311 24.4424 32.383C24.4424 33.4348 24.8602 34.4436 25.604 35.1873C26.3478 35.9311 27.3565 36.3489 28.4083 36.3489V36.3489Z" fill="#A259FF"/>
<path fill-rule="evenodd" clip-rule="evenodd" d="M28.4083 28.4173H32.3743V20.4854H28.4083C27.3565 20.4854 26.3478 20.9032 25.604 21.647C24.8602 22.3907 24.4424 23.3995 24.4424 24.4513C24.4424 25.5032 24.8602 26.5119 25.604 27.2557C26.3478 27.9994 27.3565 28.4173 28.4083 28.4173V28.4173Z" fill="#F24E1E"/>
<path fill-rule="evenodd" clip-rule="evenodd" d="M36.34 28.4173H32.374V20.4854H36.34C37.3918 20.4854 38.4006 20.9032 39.1444 21.647C39.8881 22.3907 40.306 23.3995 40.306 24.4513C40.306 25.5032 39.8881 26.5119 39.1444 27.2557C38.4006 27.9994 37.3918 28.4173 36.34 28.4173Z" fill="#FF7262"/>
</g>
<defs>
<linearGradient id="paint0_linear_663_127" x1="0.730957" y1="0.739746" x2="64.0177" y2="64.0265" gradientUnits="userSpaceOnUse">
<stop stop-color="white"/>
<stop offset="0.765625" stop-color="white" stop-opacity="0"/>
</linearGradient>
<linearGradient id="paint1_linear_663_127" x1="10.3506" y1="10.3589" x2="54.3981" y2="54.4064" gradientUnits="userSpaceOnUse">
<stop stop-color="white"/>
<stop offset="0.828125" stop-color="white" stop-opacity="0"/>
</linearGradient>
<clipPath id="clip0_663_127">
<rect width="23.7958" height="23.7958" fill="white" transform="translate(20.4766 20.4849)"/>
</clipPath>
</defs>
</svg>
