<svg width="64" height="65" viewBox="0 0 64 65" fill="none" xmlns="http://www.w3.org/2000/svg">
<path d="M29.6754 2.30827C31.2425 1.40353 33.1732 1.40353 34.7402 2.30827L57.0794 15.2058C58.6464 16.1105 59.6118 17.7826 59.6118 19.592V45.3871C59.6118 47.1965 58.6464 48.8686 57.0794 49.7733L34.7402 62.6708C33.1732 63.5756 31.2425 63.5756 29.6754 62.6708L7.33625 49.7733C5.7692 48.8686 4.80386 47.1965 4.80386 45.3871V19.592C4.80386 17.7825 5.7692 16.1105 7.33625 15.2058L29.6754 2.30827Z" stroke="url(#paint0_linear_663_103)" stroke-opacity="0.3" stroke-width="1.01296"/>
<path d="M30.4453 11.4829C31.536 10.8532 32.8797 10.8532 33.9704 11.4829L49.5185 20.4596C50.6091 21.0893 51.281 22.253 51.281 23.5124V41.4658C51.281 42.7252 50.6091 43.8889 49.5185 44.5186L33.9704 53.4953C32.8797 54.125 31.536 54.125 30.4453 53.4953L14.8973 44.5186C13.8066 43.8889 13.1347 42.7252 13.1347 41.4658V23.5124C13.1347 22.253 13.8066 21.0893 14.8973 20.4596L30.4453 11.4829Z" fill="url(#paint1_linear_663_103)" fill-opacity="0.2"/>
<g clip-path="url(#clip0_663_103)">
<path d="M43.657 31.4291L33.2671 21.0407C33.1249 20.8984 32.956 20.7855 32.7701 20.7085C32.5842 20.6314 32.3849 20.5918 32.1837 20.5918C31.9824 20.5918 31.7832 20.6314 31.5973 20.7085C31.4114 20.7855 31.2425 20.8984 31.1002 21.0407L28.9437 23.1972L31.6802 25.9337C32.003 25.8236 32.3502 25.8063 32.6823 25.884C33.0143 25.9617 33.3179 26.1311 33.5582 26.3731C33.7986 26.615 33.9661 26.9196 34.0417 27.2522C34.1172 27.5847 34.0977 27.9318 33.9855 28.2538L36.6223 30.8922C37.0125 30.7548 37.4377 30.7544 37.8281 30.891C38.2185 31.0276 38.5507 31.2931 38.7701 31.6437C38.9895 31.9943 39.0829 32.4092 39.035 32.82C38.9872 33.2308 38.8008 33.6131 38.5067 33.9039C38.2089 34.2034 37.8164 34.3904 37.3961 34.4327C36.9758 34.475 36.5539 34.3701 36.2024 34.1359C35.8508 33.9016 35.5916 33.5526 35.4688 33.1485C35.346 32.7443 35.3674 32.31 35.5292 31.9199L33.0708 29.46V35.9339C33.4445 36.1189 33.7435 36.4264 33.918 36.8051C34.0924 37.1837 34.1319 37.6108 34.0296 38.015C33.9274 38.4193 33.6898 38.7763 33.3563 39.0265C33.0227 39.2767 32.6135 39.4051 32.1969 39.3902C31.7802 39.3754 31.3812 39.2181 31.0664 38.9447C30.7515 38.6713 30.5399 38.2983 30.4668 37.8878C30.3937 37.4773 30.4635 37.0541 30.6645 36.6889C30.8656 36.3236 31.1858 36.0382 31.5717 35.8804V29.347C31.349 29.2557 31.1466 29.1213 30.9762 28.9515C30.8057 28.7817 30.6705 28.5798 30.5784 28.3575C30.4864 28.1352 30.4392 27.8968 30.4397 27.6562C30.4401 27.4156 30.4882 27.1774 30.5812 26.9555L27.8848 24.2576L20.7609 31.3815C20.6186 31.5238 20.5057 31.6927 20.4287 31.8786C20.3517 32.0645 20.312 32.2637 20.312 32.465C20.312 32.6662 20.3517 32.8654 20.4287 33.0513C20.5057 33.2372 20.6186 33.4061 20.7609 33.5484L31.1508 43.9382C31.293 44.0806 31.462 44.1935 31.6479 44.2705C31.8338 44.3475 32.033 44.3872 32.2342 44.3872C32.4355 44.3872 32.6347 44.3475 32.8206 44.2705C33.0065 44.1935 33.1754 44.0806 33.3177 43.9382L43.6585 33.5975C43.9455 33.31 44.1068 32.9203 44.1068 32.514C44.1068 32.1077 43.9455 31.7181 43.6585 31.4306" fill="#F05133"/>
</g>
<defs>
<linearGradient id="paint0_linear_663_103" x1="0.564453" y1="0.846191" x2="63.8512" y2="64.1329" gradientUnits="userSpaceOnUse">
<stop stop-color="white"/>
<stop offset="0.765625" stop-color="white" stop-opacity="0"/>
</linearGradient>
<linearGradient id="paint1_linear_663_103" x1="10.1841" y1="10.4653" x2="54.2316" y2="54.5129" gradientUnits="userSpaceOnUse">
<stop stop-color="white"/>
<stop offset="0.828125" stop-color="white" stop-opacity="0"/>
</linearGradient>
<clipPath id="clip0_663_103">
<rect width="23.7958" height="23.7958" fill="white" transform="translate(20.3096 20.5913)"/>
</clipPath>
</defs>
</svg>
