<svg width="64" height="65" viewBox="0 0 64 65" fill="none" xmlns="http://www.w3.org/2000/svg">
<path d="M29.16 2.30827C30.7271 1.40353 32.6578 1.40353 34.2248 2.30827L56.564 15.2058C58.131 16.1105 59.0964 17.7826 59.0964 19.592V45.3871C59.0964 47.1965 58.131 48.8686 56.564 49.7733L34.2248 62.6708C32.6578 63.5756 30.7271 63.5756 29.16 62.6708L6.82087 49.7733C5.25382 48.8686 4.28848 47.1965 4.28848 45.3871V19.592C4.28848 17.7825 5.25382 16.1105 6.82087 15.2058L29.16 2.30827Z" stroke="url(#paint0_linear_663_88)" stroke-opacity="0.3" stroke-width="1.01296"/>
<path d="M29.9299 11.4829C31.0206 10.8532 32.3644 10.8532 33.455 11.4829L49.0031 20.4596C50.0937 21.0893 50.7656 22.253 50.7656 23.5124V41.4658C50.7656 42.7252 50.0937 43.8889 49.0031 44.5186L33.455 53.4953C32.3644 54.125 31.0206 54.125 29.9299 53.4953L14.3819 44.5186C13.2912 43.8889 12.6193 42.7252 12.6193 41.4658V23.5124C12.6193 22.253 13.2912 21.0893 14.3819 20.4596L29.9299 11.4829Z" fill="url(#paint1_linear_663_88)" fill-opacity="0.2"/>
<g clip-path="url(#clip0_663_88)">
<path d="M21.2017 20.5913L23.1113 42.0075L31.6807 44.3871L40.2725 42.0046L42.1851 20.5913H21.2031H21.2017ZM38.0283 27.5962H27.9775L28.217 30.2866H37.7903L37.069 38.3504L31.6807 39.8436L26.2999 38.3504L25.9326 34.2248H28.5694L28.7568 36.3218L31.6822 37.1101L31.6882 37.1086L34.6151 36.3188L34.9185 32.9131H25.8151L25.1071 24.9697H38.2647L38.0298 27.5962H38.0283Z" fill="#E44D26"/>
</g>
<defs>
<linearGradient id="paint0_linear_663_88" x1="0.0490723" y1="0.846191" x2="63.3358" y2="64.1329" gradientUnits="userSpaceOnUse">
<stop stop-color="white"/>
<stop offset="0.765625" stop-color="white" stop-opacity="0"/>
</linearGradient>
<linearGradient id="paint1_linear_663_88" x1="9.6687" y1="10.4653" x2="53.7163" y2="54.5129" gradientUnits="userSpaceOnUse">
<stop stop-color="white"/>
<stop offset="0.828125" stop-color="white" stop-opacity="0"/>
</linearGradient>
<clipPath id="clip0_663_88">
<rect width="23.7958" height="23.7958" fill="white" transform="translate(19.7947 20.5913)"/>
</clipPath>
</defs>
</svg>
