<svg width="65" height="65" viewBox="0 0 65 65" fill="none" xmlns="http://www.w3.org/2000/svg">
<path d="M29.9481 2.30827C31.5152 1.40353 33.4459 1.40353 35.0129 2.30827L57.3521 15.2058C58.9191 16.1105 59.8845 17.7826 59.8845 19.592V45.3871C59.8845 47.1965 58.9191 48.8686 57.3521 49.7733L35.0129 62.6708C33.4459 63.5756 31.5152 63.5756 29.9481 62.6708L7.60896 49.7733C6.04191 48.8686 5.07656 47.1965 5.07656 45.3871V19.592C5.07656 17.7825 6.04191 16.1105 7.60896 15.2058L29.9481 2.30827Z" stroke="url(#paint0_linear_663_94)" stroke-opacity="0.3" stroke-width="1.01296"/>
<path d="M30.718 11.4829C31.8087 10.8532 33.1524 10.8532 34.2431 11.4829L49.7912 20.4596C50.8818 21.0893 51.5537 22.253 51.5537 23.5124V41.4658C51.5537 42.7252 50.8818 43.8889 49.7912 44.5186L34.2431 53.4953C33.1524 54.125 31.8087 54.125 30.718 53.4953L15.17 44.5186C14.0793 43.8889 13.4074 42.7252 13.4074 41.4658V23.5124C13.4074 22.253 14.0793 21.0893 15.17 20.4596L30.718 11.4829Z" fill="url(#paint1_linear_663_94)" fill-opacity="0.2"/>
<path d="M33.6976 36.3654V34.4274H36.6044V35.3964H40.4803V33.4585H35.6355C34.5696 33.4585 33.6976 32.5864 33.6976 31.5206V28.6137C33.6976 27.5478 34.5696 26.6758 35.6355 26.6758H41.4492C42.5151 26.6758 43.3871 27.5478 43.3871 28.6137V30.5516H40.4803V29.5827H36.6044V31.5206H41.4492C42.5151 31.5206 43.3871 32.3926 43.3871 33.4585V36.3654C43.3871 37.4312 42.5151 38.3033 41.4492 38.3033H35.6355C34.5696 38.3033 33.6976 37.4312 33.6976 36.3654ZM27.8838 26.6758V35.3964H24.9769V33.4585H22.0701V35.3964C22.0701 37.0049 23.3685 38.3033 24.9769 38.3033H27.8838C29.4923 38.3033 30.7907 37.0049 30.7907 35.3964V26.6758H27.8838Z" fill="#FEE736"/>
<defs>
<linearGradient id="paint0_linear_663_94" x1="0.837158" y1="0.846191" x2="64.1239" y2="64.1329" gradientUnits="userSpaceOnUse">
<stop stop-color="white"/>
<stop offset="0.765625" stop-color="white" stop-opacity="0"/>
</linearGradient>
<linearGradient id="paint1_linear_663_94" x1="10.4568" y1="10.4653" x2="54.5043" y2="54.5129" gradientUnits="userSpaceOnUse">
<stop stop-color="white"/>
<stop offset="0.828125" stop-color="white" stop-opacity="0"/>
</linearGradient>
</defs>
</svg>
