<svg width="64" height="65" viewBox="0 0 64 65" fill="none" xmlns="http://www.w3.org/2000/svg">
<path d="M29.16 2.20182C30.7271 1.29709 32.6578 1.29709 34.2248 2.20182L56.564 15.0993C58.131 16.0041 59.0964 17.6761 59.0964 19.4856V45.2806C59.0964 47.0901 58.131 48.7621 56.564 49.6669L34.2248 62.5644C32.6578 63.4691 30.7271 63.4691 29.16 62.5644L6.82087 49.6669C5.25382 48.7621 4.28848 47.0901 4.28848 45.2806V19.4856C4.28848 17.6761 5.25382 16.0041 6.82087 15.0993L29.16 2.20182Z" stroke="url(#paint0_linear_663_118)" stroke-opacity="0.3" stroke-width="1.01296"/>
<path d="M29.9299 11.3765C31.0206 10.7468 32.3644 10.7468 33.455 11.3765L49.0031 20.3532C50.0937 20.9829 50.7656 22.1466 50.7656 23.406V41.3593C50.7656 42.6187 50.0937 43.7825 49.0031 44.4122L33.455 53.3888C32.3644 54.0185 31.0206 54.0185 29.9299 53.3888L14.3819 44.4122C13.2912 43.7825 12.6193 42.6187 12.6193 41.3593V23.406C12.6193 22.1466 13.2912 20.9829 14.3819 20.3532L29.9299 11.3765Z" fill="url(#paint1_linear_663_118)" fill-opacity="0.2"/>
<path d="M31.6923 44.1226C31.3756 44.1227 31.0644 44.0394 30.7901 43.8811L27.9189 42.1814C27.4904 41.9415 27.6992 41.8568 27.8409 41.8074C28.2966 41.6666 28.733 41.4694 29.1398 41.2204C29.1738 41.2046 29.2114 41.1978 29.2488 41.2006C29.2862 41.2034 29.3223 41.2157 29.3536 41.2363L31.5598 42.547C31.6009 42.5687 31.6467 42.5801 31.6932 42.5801C31.7396 42.5801 31.7854 42.5687 31.8265 42.547L40.43 37.5811C40.4703 37.557 40.5036 37.5228 40.5267 37.4819C40.5497 37.4411 40.5618 37.3949 40.5617 37.348V27.4145C40.5617 27.3668 40.5494 27.32 40.5261 27.2784C40.5027 27.2368 40.4691 27.202 40.4283 27.1772L31.8248 22.2155C31.7843 22.1927 31.7385 22.1807 31.6919 22.1807C31.6453 22.1807 31.5996 22.1927 31.559 22.2155L22.9605 27.1789C22.9195 27.2031 22.8854 27.2376 22.8616 27.2789C22.8378 27.3201 22.8251 27.3669 22.8247 27.4145V37.3438C22.8248 37.3906 22.8374 37.4366 22.8611 37.4769C22.8848 37.5173 22.9188 37.5506 22.9597 37.5735L25.3194 38.9353C26.5981 39.5743 27.3813 38.8213 27.3813 38.0649V28.2614C27.3813 28.1947 27.4079 28.1307 27.455 28.0836C27.5022 28.0364 27.5662 28.0099 27.6329 28.0099H28.723C28.7897 28.0099 28.8537 28.0364 28.9009 28.0836C28.9481 28.1307 28.9746 28.1947 28.9746 28.2614V38.0658C28.9746 39.7722 28.0455 40.7491 26.4271 40.7491C25.7289 40.7613 25.0416 40.5746 24.4456 40.2108L22.184 38.9135C21.9095 38.7537 21.6817 38.5245 21.5233 38.2491C21.365 37.9736 21.2817 37.6615 21.2817 37.3438V27.4145C21.2809 27.0963 21.3639 26.7835 21.5223 26.5075C21.6806 26.2315 21.9089 26.0021 22.184 25.8422L30.7884 20.8747C31.0655 20.723 31.3764 20.6436 31.6923 20.6436C32.0083 20.6436 32.3191 20.723 32.5963 20.8747L41.1998 25.8422C41.4743 26.0018 41.7022 26.2306 41.8607 26.5057C42.0191 26.7809 42.1027 27.0928 42.1029 27.4103V37.3438C42.1024 37.6615 42.0188 37.9735 41.8604 38.2489C41.702 38.5243 41.4742 38.7534 41.1998 38.9135L32.5963 43.8811C32.3214 44.0397 32.0096 44.123 31.6923 44.1226V44.1226Z" fill="#83CD29"/>
<path d="M30.0605 34.0198C30.0605 33.9531 30.0871 33.8891 30.1342 33.842C30.1814 33.7948 30.2454 33.7683 30.3121 33.7683H31.4249C31.4843 33.7685 31.5418 33.7897 31.5871 33.8283C31.6324 33.8668 31.6625 33.9201 31.6722 33.9788C31.8399 35.1116 32.3431 35.6827 34.6181 35.6827C36.4302 35.6827 37.2025 35.2726 37.2025 34.3108C37.2025 33.7565 36.9836 33.3448 34.1669 33.0689C31.8123 32.8358 30.3566 32.3142 30.3566 30.4325C30.3566 28.6967 31.8198 27.6611 34.2726 27.6611C37.0289 27.6611 38.3932 28.6179 38.566 30.6707C38.5686 30.705 38.5642 30.7394 38.553 30.7719C38.5418 30.8044 38.5241 30.8343 38.5009 30.8596C38.4777 30.885 38.4496 30.9054 38.4182 30.9195C38.3869 30.9336 38.353 30.9411 38.3186 30.9415H37.1983C37.1421 30.9407 37.0878 30.9212 37.044 30.8859C37.0002 30.8506 36.9695 30.8017 36.9568 30.747C36.6893 29.5554 36.0344 29.1747 34.2734 29.1747C32.2944 29.1747 32.0647 29.864 32.0647 30.3805C32.0647 31.0061 32.3364 31.1889 35.008 31.5419C37.6519 31.8916 38.9081 32.3864 38.9081 34.2446C38.9081 36.1196 37.345 37.1929 34.6189 37.1929C30.8496 37.1979 30.0605 35.4697 30.0605 34.0198V34.0198Z" fill="#83CD29"/>
<defs>
<linearGradient id="paint0_linear_663_118" x1="0.0490723" y1="0.739746" x2="63.3358" y2="64.0265" gradientUnits="userSpaceOnUse">
<stop stop-color="white"/>
<stop offset="0.765625" stop-color="white" stop-opacity="0"/>
</linearGradient>
<linearGradient id="paint1_linear_663_118" x1="9.6687" y1="10.3589" x2="53.7163" y2="54.4064" gradientUnits="userSpaceOnUse">
<stop stop-color="white"/>
<stop offset="0.828125" stop-color="white" stop-opacity="0"/>
</linearGradient>
</defs>
</svg>
