<svg width="64" height="65" viewBox="0 0 64 65" fill="none" xmlns="http://www.w3.org/2000/svg">
<path d="M29.6295 2.20182C31.1966 1.29709 33.1273 1.29709 34.6943 2.20182L57.0335 15.0993C58.6005 16.0041 59.5659 17.6761 59.5659 19.4856V45.2806C59.5659 47.0901 58.6005 48.7621 57.0335 49.6669L34.6943 62.5644C33.1273 63.4691 31.1966 63.4691 29.6295 62.5644L7.29035 49.6669C5.7233 48.7621 4.75796 47.0901 4.75796 45.2806V19.4856C4.75796 17.6761 5.7233 16.0041 7.29036 15.0993L29.6295 2.20182Z" stroke="url(#paint0_linear_663_201)" stroke-opacity="0.3" stroke-width="1.01296"/>
<path d="M30.3994 11.3765C31.4901 10.7468 32.8338 10.7468 33.9245 11.3765L49.4726 20.3532C50.5632 20.9829 51.2351 22.1466 51.2351 23.406V41.3593C51.2351 42.6187 50.5632 43.7825 49.4726 44.4122L33.9245 53.3888C32.8338 54.0185 31.4901 54.0185 30.3994 53.3888L14.8514 44.4122C13.7607 43.7825 13.0888 42.6187 13.0888 41.3593V23.406C13.0888 22.1466 13.7607 20.9829 14.8514 20.3532L30.3994 11.3765Z" fill="url(#paint1_linear_663_201)" fill-opacity="0.2"/>
<g clip-path="url(#clip0_663_201)">
<path d="M38.1109 40.9222V20.4849L44.06 22.9596V41.8059L38.111 44.2807L20.2642 38.2716L38.1109 40.9222ZM23.1076 34.416L21.7514 33.963L25.0994 30.6535L21.7515 27.3441L23.1076 26.8912L26.3986 29.3694L31.8642 23.9665L35.1364 25.3575V35.9492L31.8641 37.3401L26.3984 31.9376L23.1076 34.4159V34.416ZM28.1039 30.6535L31.8642 33.4852V27.8218L28.1039 30.6535V30.6535Z" fill="#016EC5"/>
</g>
<defs>
<linearGradient id="paint0_linear_663_201" x1="0.518555" y1="0.739746" x2="63.8053" y2="64.0265" gradientUnits="userSpaceOnUse">
<stop stop-color="white"/>
<stop offset="0.765625" stop-color="white" stop-opacity="0"/>
</linearGradient>
<linearGradient id="paint1_linear_663_201" x1="10.1382" y1="10.3589" x2="54.1857" y2="54.4064" gradientUnits="userSpaceOnUse">
<stop stop-color="white"/>
<stop offset="0.828125" stop-color="white" stop-opacity="0"/>
</linearGradient>
<clipPath id="clip0_663_201">
<rect width="23.7958" height="23.7958" fill="white" transform="translate(20.2642 20.4849)"/>
</clipPath>
</defs>
</svg>
